<?xml version="1.0" encoding="UTF-8" standalone="no"?>
<svg width="220px" height="77px" viewBox="0 0 220 77" version="1.1" xmlns="http://www.w3.org/2000/svg" xmlns:xlink="http://www.w3.org/1999/xlink" xmlns:sketch="http://www.bohemiancoding.com/sketch/ns">
    <title>velocity_logo</title>
    <description>Created with Sketch (http://www.bohemiancoding.com/sketch)</description>
    <defs></defs>
    <g id="Page-1" stroke="none" stroke-width="1" fill="none" fill-rule="evenodd" sketch:type="MSPage">
        <g id="velocity_logo" sketch:type="MSLayerGroup" transform="translate(1.000000, 0.000000)">
            <g id="Page-1" sketch:type="MSShapeGroup">
                <g id="Oval-2-+-Oval-1" transform="translate(137.000000, 0.000000)">
                    <path d="M24,48 C37.2548347,48 48,37.2548347 48,24 C48,10.7451653 37.2548347,0 24,0 C10.7451653,0 0,10.7451653 0,24 C0,37.2548347 10.7451653,48 24,48 L24,48 Z M24,41 C33.3888412,41 41,33.3888412 41,24 C41,14.6111588 33.3888412,7 24,7 C14.6111588,7 7,14.6111588 7,24 C7,33.3888412 14.6111588,41 24,41 L24,41 Z" id="Oval-2" fill-opacity="0.5" fill="#4A90E2"></path>
                    <circle id="Oval-1" fill="#4990E2" cx="24" cy="24" r="9"></circle>
                </g>
                <path d="M24.3136312,66 L38.2314007,24.070517 L28.7179886,24.070517 L19.2633013,53.5503496 L19.1458518,53.5503496 L9.80861397,24.070517 L0.353926638,24.070517 L13.9193476,66 L24.3136312,66 Z M44.5736755,52.8456524 L66.4780132,52.8456524 C66.6346134,50.49665 66.4388661,48.2455565 65.8907656,46.0923043 C65.342665,43.9390521 64.452015,42.0207289 63.2187887,40.3372772 C61.9855625,38.6538255 60.409797,37.3129568 58.491445,36.3146308 C56.5730931,35.3163047 54.3219996,34.8171492 51.7380969,34.8171492 C49.4282446,34.8171492 47.3239615,35.2282185 45.4251846,36.0503693 C43.5264077,36.8725201 41.891918,37.9980669 40.5216666,39.4270434 C39.1514152,40.8560198 38.09438,42.5492336 37.3505293,44.5067356 C36.6066785,46.4642376 36.2347587,48.578308 36.2347587,50.8490104 C36.2347587,53.1980127 36.5968911,55.3512326 37.3211669,57.3087346 C38.0454426,59.2662366 39.0731157,60.9496631 40.4042171,62.3590645 C41.7353184,63.7684659 43.3600207,64.8548632 45.2783727,65.618289 C47.1967246,66.3817148 49.3499445,66.763422 51.7380969,66.763422 C55.1833004,66.763422 58.1195094,65.9804329 60.5468119,64.4144313 C62.9741143,62.8484297 64.7749891,60.2449911 65.9494903,56.6040374 L58.6088946,56.6040374 C58.3348443,57.5436384 57.5910047,58.4342884 56.3773535,59.2760143 C55.1637022,60.1177401 53.7151725,60.5385968 52.0317208,60.5385968 C49.6827184,60.5385968 47.8818436,59.9317802 46.6290423,58.718129 C45.376241,57.5044778 44.6911256,55.5470051 44.5736755,52.8456524 Z M58.1390964,47.5604235 L44.5736755,47.5604235 C44.6128255,46.9731729 44.7400612,46.3076322 44.9553865,45.5637814 C45.1707117,44.8199307 45.5426315,44.1152405 46.071157,43.4496898 C46.5996826,42.7841392 47.3043727,42.2262595 48.1852486,41.776034 C49.0661245,41.3258085 50.1720965,41.1006992 51.5031979,41.1006992 C53.5389999,41.1006992 55.0560412,41.6487915 56.0543672,42.7449926 C57.0526933,43.8411938 57.747596,45.4463213 58.1390964,47.5604235 Z M71.6457926,24.070517 L71.6457926,66 L79.9847094,66 L79.9847094,24.070517 L71.6457926,24.070517 Z M85.622287,50.8490104 C85.622287,53.2763128 85.9942068,55.4686822 86.7380575,57.4261842 C87.4819083,59.3836861 88.5389435,61.0573252 89.9091949,62.4471517 C91.2794463,63.8369781 92.9237233,64.9038006 94.8420752,65.6476514 C96.7604272,66.3915022 98.9136471,66.763422 101.301799,66.763422 C103.689952,66.763422 105.852959,66.3915022 107.790886,65.6476514 C109.728813,64.9038006 111.382877,63.8369781 112.753129,62.4471517 C114.12338,61.0573252 115.180415,59.3836861 115.924266,57.4261842 C116.668117,55.4686822 117.040037,53.2763128 117.040037,50.8490104 C117.040037,48.4217079 116.668117,46.2195512 115.924266,44.2424742 C115.180415,42.2653972 114.12338,40.5819707 112.753129,39.1921443 C111.382877,37.8023179 109.728813,36.7257079 107.790886,35.9622822 C105.852959,35.1988564 103.689952,34.8171492 101.301799,34.8171492 C98.9136471,34.8171492 96.7604272,35.1988564 94.8420752,35.9622822 C92.9237233,36.7257079 91.2794463,37.8023179 89.9091949,39.1921443 C88.5389435,40.5819707 87.4819083,42.2653972 86.7380575,44.2424742 C85.9942068,46.2195512 85.622287,48.4217079 85.622287,50.8490104 Z M93.9612037,50.8490104 C93.9612037,49.6353591 94.0786521,48.4413008 94.3135523,47.2667996 C94.5484526,46.0922984 94.9497345,45.0548379 95.51741,44.154387 C96.0850856,43.2539361 96.8387126,42.5198839 97.7783135,41.9522083 C98.7179145,41.3845327 99.8923981,41.1006992 101.301799,41.1006992 C102.711201,41.1006992 103.895472,41.3845327 104.854648,41.9522083 C105.813824,42.5198839 106.577238,43.2539361 107.144914,44.154387 C107.712589,45.0548379 108.113871,46.0922984 108.348771,47.2667996 C108.583672,48.4413008 108.70112,49.6353591 108.70112,50.8490104 C108.70112,52.0626616 108.583672,53.2469325 108.348771,54.4018587 C108.113871,55.5567849 107.712589,56.5942454 107.144914,57.5142713 C106.577238,58.4342972 105.813824,59.1683495 104.854648,59.71645 C103.895472,60.2645506 102.711201,60.5385968 101.301799,60.5385968 C99.8923981,60.5385968 98.7179145,60.2645506 97.7783135,59.71645 C96.8387126,59.1683495 96.0850856,58.4342972 95.51741,57.5142713 C94.9497345,56.5942454 94.5484526,55.5567849 94.3135523,54.4018587 C94.0786521,53.2469325 93.9612037,52.0626616 93.9612037,50.8490104 Z M143.113833,46.3272034 L151.276575,46.3272034 C151.159125,44.3697014 150.689332,42.6764876 149.867181,41.2475111 C149.04503,39.8185347 147.978208,38.6244763 146.666681,37.6653004 C145.355155,36.7061244 143.867476,35.9916469 142.203599,35.5218464 C140.539722,35.0520459 138.807359,34.8171492 137.006457,34.8171492 C134.540005,34.8171492 132.347635,35.2282185 130.429283,36.0503693 C128.510932,36.8725201 126.886229,38.0176416 125.555128,39.4857681 C124.224027,40.9538946 123.215928,42.6960453 122.530802,44.7122723 C121.845677,46.7284994 121.503119,48.9110813 121.503119,51.2600837 C121.503119,53.530786 121.875039,55.6154944 122.61889,57.5142713 C123.36274,59.4130482 124.400201,61.0475379 125.731302,62.4177893 C127.062404,63.7880407 128.677318,64.8548632 130.576095,65.618289 C132.474872,66.3817148 134.559581,66.763422 136.830283,66.763422 C140.862737,66.763422 144.170866,65.7063867 146.754768,63.5922846 C149.338671,61.4781824 150.904649,58.4049504 151.45275,54.3724963 L143.407457,54.3724963 C143.133406,56.2516982 142.458078,57.7491648 141.381452,58.8649409 C140.304826,59.9807171 138.76821,60.5385968 136.771558,60.5385968 C135.479607,60.5385968 134.383422,60.2449759 133.482971,59.6577253 C132.58252,59.0704747 131.868043,58.3168477 131.339517,57.3968218 C130.810992,56.4767958 130.429285,55.4491227 130.194384,54.3137716 C129.959484,53.1784204 129.842036,52.062661 129.842036,50.9664599 C129.842036,49.8311087 129.959484,48.6859872 130.194384,47.5310611 C130.429285,46.3761349 130.830567,45.3190997 131.398242,44.3599237 C131.965918,43.4007477 132.69997,42.6177587 133.600421,42.0109331 C134.500872,41.4041074 135.616631,41.1006992 136.947732,41.1006992 C140.510386,41.1006992 142.565732,42.8428498 143.113833,46.3272034 Z M156.38563,35.6392959 L156.38563,66 L164.724547,66 L164.724547,35.6392959 L156.38563,35.6392959 Z M181.872179,35.6392959 L181.872179,26.5369572 L173.533262,26.5369572 L173.533262,35.6392959 L168.482932,35.6392959 L168.482932,41.2181487 L173.533262,41.2181487 L173.533262,59.1292024 C173.533262,60.6560539 173.787733,61.8892617 174.296684,62.8288626 C174.805634,63.7684636 175.500537,64.4927285 176.381413,65.001679 C177.262289,65.5106295 178.280175,65.8531872 179.435101,66.0293624 C180.590027,66.2055376 181.813447,66.2936238 183.105399,66.2936238 C183.927549,66.2936238 184.769263,66.2740491 185.630564,66.2348991 C186.491864,66.195749 187.274853,66.1174501 187.979554,66 L187.979554,59.5402757 C187.588054,59.6185758 187.176985,59.6773 186.746334,59.71645 C186.315684,59.7556001 185.865465,59.7751748 185.395664,59.7751748 C183.986263,59.7751748 183.046676,59.5402781 182.576876,59.0704776 C182.107075,58.6006771 181.872179,57.6610903 181.872179,56.2516888 L181.872179,41.2181487 L187.979554,41.2181487 L187.979554,35.6392959 L181.872179,35.6392959 Z M206.947654,69.758385 L219.632203,35.6392959 L210.999663,35.6392959 L204.363764,56.4278631 L204.246314,56.4278631 L197.375517,35.6392959 L188.508077,35.6392959 L199.13726,64.1208075 C199.37216,64.7080581 199.489608,65.3344493 199.489608,66 C199.489608,66.9004509 199.22535,67.7225894 198.696824,68.4664402 C198.168298,69.2102909 197.355947,69.6409349 196.259746,69.758385 C195.437595,69.7975351 194.615457,69.7779603 193.793306,69.6996603 C192.971155,69.6213602 192.168591,69.5430613 191.385591,69.4647612 L191.385591,76.3355588 C192.246892,76.4138589 193.098392,76.4823704 193.940118,76.5410955 C194.781844,76.5998206 195.633344,76.6291827 196.494645,76.6291827 C199.352598,76.6291827 201.584117,76.100665 203.189269,75.043614 C204.79442,73.9865629 206.047203,72.2248375 206.947654,69.758385 Z" id="Velocity" fill="#000000"></path>
            </g>
        </g>
    </g>
</svg>