<?xml version="1.0" encoding="UTF-8" standalone="no"?>
<svg width="283px" height="103px" viewBox="0 0 283 103" version="1.1" xmlns="http://www.w3.org/2000/svg" xmlns:xlink="http://www.w3.org/1999/xlink" xmlns:sketch="http://www.bohemiancoding.com/sketch/ns">
    <title>velocity_logo</title>
    <description>Created with Sketch (http://www.bohemiancoding.com/sketch)</description>
    <defs></defs>
    <g id="Page-1" stroke="none" stroke-width="1" fill="none" fill-rule="evenodd" sketch:type="MSPage">
        <text id="Velocity" sketch:type="MSTextLayer" font-family="Helvetica Neue" font-size="70" font-weight="bold" sketch:alignment="middle" fill="#000000">
            <tspan x="10.765" y="82">Velocity</tspan>
        </text>
        <g id="Oval-2-+-Oval-1" sketch:type="MSLayerGroup" transform="translate(180.000000, 9.000000)" fill="#4DDB0A">
            <path d="M24,48 C37.2548347,48 48,37.2548347 48,24 C48,10.7451653 37.2548347,0 24,0 C10.7451653,0 0,10.7451653 0,24 C0,37.2548347 10.7451653,48 24,48 Z M24,41 C33.3888412,41 41,33.3888412 41,24 C41,14.6111588 33.3888412,7 24,7 C14.6111588,7 7,14.6111588 7,24 C7,33.3888412 14.6111588,41 24,41 Z" id="Oval-2" fill-opacity="0.396369485" sketch:type="MSShapeGroup"></path>
            <circle id="Oval-1" sketch:type="MSShapeGroup" cx="23.5" cy="23.5" r="9.5"></circle>
        </g>
    </g>
</svg>